<?xml version="1.0" encoding="iso-8859-1"?>
<!-- Generator: Adobe Illustrator 19.0.0, SVG Export Plug-In . SVG Version: 6.00 Build 0)  -->
<svg version="1.1" id="Capa_1" xmlns="http://www.w3.org/2000/svg" xmlns:xlink="http://www.w3.org/1999/xlink" x="0px" y="0px"
	 viewBox="0 0 490 490" style="enable-background:new 0 0 490 490;" xml:space="preserve">
<g>
	<path d="M70.56,334.303l13.458-7.298c-49.781-91.77-2.819-151.457-0.793-153.955l-11.858-9.698
		C69.072,166.157,15.688,233.142,70.56,334.303z"/>
	<path d="M54.194,349.227c-64.016-118.022-3.409-194.853-0.8-198.061l-11.851-9.705c-0.703,0.867-69.916,87.658-0.808,215.063
		L54.194,349.227z"/>
	<path d="M419.451,334.303c54.865-101.161,1.495-168.146-0.807-170.95l-11.843,9.72c0.493,0.606,49.197,61.729-0.807,153.932
		L419.451,334.303z"/>
	<path d="M435.81,349.227l13.458,7.297c69.101-127.405-0.105-214.196-0.808-215.063l-11.858,9.705
		C439.219,154.374,499.811,231.205,435.81,349.227z"/>
	<path d="M139.78,490h213.418c16.844,0,30.625-13.781,30.625-30.625V30.625C383.822,13.781,370.041,0,353.198,0H139.78
		c-16.844,0-30.625,13.781-30.625,30.625v428.75C109.155,476.219,122.936,490,139.78,490z M139.78,382.813V76.563h213.418v306.25
		H139.78z M139.78,459.375v-45.937h213.418v45.937H139.78z M353.198,30.625v15.312H139.78V30.625H353.198z"/>
	<circle cx="249.2" cy="436.483" r="17.865"/>
</g>
<g>
</g>
<g>
</g>
<g>
</g>
<g>
</g>
<g>
</g>
<g>
</g>
<g>
</g>
<g>
</g>
<g>
</g>
<g>
</g>
<g>
</g>
<g>
</g>
<g>
</g>
<g>
</g>
<g>
</g>
</svg>
